<?xml version="1.0" encoding="UTF-8" standalone="no"?>
<!-- Created with Inkscape (http://www.inkscape.org/) -->

<svg
   version="1.1"
   id="svg1"
   width="800"
   height="800"
   viewBox="0 0 800 800"
   sodipodi:docname="fireplace-with-logs-inside.svg"
   inkscape:version="1.3.2 (091e20e, 2023-11-25, custom)"
   xmlns:inkscape="http://www.inkscape.org/namespaces/inkscape"
   xmlns:sodipodi="http://sodipodi.sourceforge.net/DTD/sodipodi-0.dtd"
   xmlns="http://www.w3.org/2000/svg"
   xmlns:svg="http://www.w3.org/2000/svg">
  <defs
     id="defs1">
    <clipPath
       clipPathUnits="userSpaceOnUse"
       id="clipPath9">
      <path
         d="M 0,600 H 600 V 0 H 0 Z"
         transform="translate(-188.5122,-181.582)"
         id="path9" />
    </clipPath>
    <clipPath
       clipPathUnits="userSpaceOnUse"
       id="clipPath11">
      <path
         d="M 0,600 H 600 V 0 H 0 Z"
         transform="translate(-150.9067,-208.36431)"
         id="path11" />
    </clipPath>
    <clipPath
       clipPathUnits="userSpaceOnUse"
       id="clipPath13">
      <path
         d="M 0,600 H 600 V 0 H 0 Z"
         id="path13" />
    </clipPath>
    <clipPath
       clipPathUnits="userSpaceOnUse"
       id="clipPath15">
      <path
         d="M 0,600 H 600 V 0 H 0 Z"
         id="path15" />
    </clipPath>
    <clipPath
       clipPathUnits="userSpaceOnUse"
       id="clipPath17">
      <path
         d="M 0,600 H 600 V 0 H 0 Z"
         id="path17" />
    </clipPath>
    <clipPath
       clipPathUnits="userSpaceOnUse"
       id="clipPath19">
      <path
         d="M 0,600 H 600 V 0 H 0 Z"
         id="path19" />
    </clipPath>
    <clipPath
       clipPathUnits="userSpaceOnUse"
       id="clipPath21">
      <path
         d="M 0,600 H 600 V 0 H 0 Z"
         transform="translate(-297.9619,-409.45211)"
         id="path21" />
    </clipPath>
    <clipPath
       clipPathUnits="userSpaceOnUse"
       id="clipPath23">
      <path
         d="M 0,600 H 600 V 0 H 0 Z"
         transform="translate(-296.22361,-405.47171)"
         id="path23" />
    </clipPath>
    <clipPath
       clipPathUnits="userSpaceOnUse"
       id="clipPath25">
      <path
         d="M 0,600 H 600 V 0 H 0 Z"
         id="path25" />
    </clipPath>
    <clipPath
       clipPathUnits="userSpaceOnUse"
       id="clipPath27">
      <path
         d="M 0,600 H 600 V 0 H 0 Z"
         transform="translate(-267.54301,-251.5918)"
         id="path27" />
    </clipPath>
    <clipPath
       clipPathUnits="userSpaceOnUse"
       id="clipPath29">
      <path
         d="M 0,600 H 600 V 0 H 0 Z"
         transform="translate(-267.54301,-258.73831)"
         id="path29" />
    </clipPath>
    <clipPath
       clipPathUnits="userSpaceOnUse"
       id="clipPath31">
      <path
         d="M 0,600 H 600 V 0 H 0 Z"
         transform="translate(-267.54301,-262.7764)"
         id="path31" />
    </clipPath>
    <clipPath
       clipPathUnits="userSpaceOnUse"
       id="clipPath33">
      <path
         d="M 0,600 H 600 V 0 H 0 Z"
         transform="translate(-328.38181,-251.5918)"
         id="path33" />
    </clipPath>
    <clipPath
       clipPathUnits="userSpaceOnUse"
       id="clipPath35">
      <path
         d="M 0,600 H 600 V 0 H 0 Z"
         transform="translate(-328.38181,-258.73831)"
         id="path35" />
    </clipPath>
    <clipPath
       clipPathUnits="userSpaceOnUse"
       id="clipPath37">
      <path
         d="M 0,600 H 600 V 0 H 0 Z"
         transform="translate(-328.38181,-262.7764)"
         id="path37" />
    </clipPath>
    <clipPath
       clipPathUnits="userSpaceOnUse"
       id="clipPath39">
      <path
         d="M 0,600 H 600 V 0 H 0 Z"
         transform="translate(-297.96241,-263.87011)"
         id="path39" />
    </clipPath>
    <clipPath
       clipPathUnits="userSpaceOnUse"
       id="clipPath41">
      <path
         d="M 0,600 H 600 V 0 H 0 Z"
         transform="translate(-297.96241,-275.05081)"
         id="path41" />
    </clipPath>
    <clipPath
       clipPathUnits="userSpaceOnUse"
       id="clipPath43">
      <path
         d="M 0,600 H 600 V 0 H 0 Z"
         transform="translate(-297.96241,-281.36911)"
         id="path43" />
    </clipPath>
    <clipPath
       clipPathUnits="userSpaceOnUse"
       id="clipPath45">
      <path
         d="M 0,600 H 600 V 0 H 0 Z"
         id="path45" />
    </clipPath>
    <clipPath
       clipPathUnits="userSpaceOnUse"
       id="clipPath47">
      <path
         d="M 0,600 H 600 V 0 H 0 Z"
         transform="translate(-272.1289,-222.37701)"
         id="path47" />
    </clipPath>
    <clipPath
       clipPathUnits="userSpaceOnUse"
       id="clipPath49">
      <path
         d="M 0,600 H 600 V 0 H 0 Z"
         transform="translate(-361.96001,-222.37701)"
         id="path49" />
    </clipPath>
    <clipPath
       clipPathUnits="userSpaceOnUse"
       id="clipPath51">
      <path
         d="M 0,600 H 600 V 0 H 0 Z"
         transform="translate(-252.65671,-249.37791)"
         id="path51" />
    </clipPath>
    <clipPath
       clipPathUnits="userSpaceOnUse"
       id="clipPath53">
      <path
         d="M 0,600 H 600 V 0 H 0 Z"
         transform="translate(-342.48931,-249.37891)"
         id="path53" />
    </clipPath>
    <clipPath
       clipPathUnits="userSpaceOnUse"
       id="clipPath55">
      <path
         d="M 0,600 H 600 V 0 H 0 Z"
         transform="translate(-233.96341,-222.37701)"
         id="path55" />
    </clipPath>
    <clipPath
       clipPathUnits="userSpaceOnUse"
       id="clipPath57">
      <path
         d="M 0,600 H 600 V 0 H 0 Z"
         transform="translate(-323.79591,-222.37701)"
         id="path57" />
    </clipPath>
    <clipPath
       clipPathUnits="userSpaceOnUse"
       id="clipPath59">
      <path
         d="M 0,600 H 600 V 0 H 0 Z"
         id="path59" />
    </clipPath>
  </defs>
  <sodipodi:namedview
     id="namedview1"
     pagecolor="#ffffff"
     bordercolor="#000000"
     borderopacity="0.25"
     inkscape:showpageshadow="2"
     inkscape:pageopacity="0.0"
     inkscape:pagecheckerboard="0"
     inkscape:deskcolor="#d1d1d1"
     inkscape:zoom="0.7625"
     inkscape:cx="399.34426"
     inkscape:cy="400"
     inkscape:window-width="1440"
     inkscape:window-height="830"
     inkscape:window-x="-6"
     inkscape:window-y="-6"
     inkscape:window-maximized="1"
     inkscape:current-layer="g1">
    <inkscape:page
       x="0"
       y="0"
       inkscape:label="1"
       id="page1"
       width="800"
       height="800"
       margin="105.38413 143.14 42.826668 137.70534"
       bleed="0" />
  </sodipodi:namedview>
  <g
     id="g1"
     inkscape:groupmode="layer"
     inkscape:label="1">
    <g
       id="group-MC0">
      <path
         id="path2"
         d="M 244.513,427.302 H 351.411 V 567.88 H 244.513 Z"
         style="fill:#5f4d3d;fill-opacity:1;fill-rule:evenodd;stroke:none"
         transform="matrix(1.3333333,0,0,-1.3333333,0,800)" />
      <path
         id="path3"
         d="m 252.725,475 h 28.57 v 92.879 h -28.57 z"
         style="fill:#6b5a47;fill-opacity:1;fill-rule:evenodd;stroke:none"
         transform="matrix(1.3333333,0,0,-1.3333333,0,800)" />
      <path
         id="path4"
         d="m 328.435,475 h 22.977 v 92.879 h -22.977 z"
         style="fill:#574637;fill-opacity:1;fill-rule:evenodd;stroke:none"
         transform="matrix(1.3333333,0,0,-1.3333333,0,800)" />
      <path
         id="path5"
         d="m 232.923,442.555 h 130.079 v 32.446 H 232.923 Z"
         style="fill:#5f4d3d;fill-opacity:1;fill-rule:evenodd;stroke:none"
         transform="matrix(1.3333333,0,0,-1.3333333,0,800)" />
      <path
         id="path6"
         d="M 242.915,453.564 H 277.68 V 475 h -34.765 z"
         style="fill:#6b5a47;fill-opacity:1;fill-rule:evenodd;stroke:none"
         transform="matrix(1.3333333,0,0,-1.3333333,0,800)" />
      <path
         id="path7"
         d="m 335.043,453.564 h 27.959 V 475 h -27.959 z"
         style="fill:#574637;fill-opacity:1;fill-rule:evenodd;stroke:none"
         transform="matrix(1.3333333,0,0,-1.3333333,0,800)" />
      <path
         id="path8"
         d="m 0,0 h 218.899 v -92.114 h -32.083 v 6.469 c 0,23.908 -19.563,43.468 -43.47,43.468 H 75.555 c -23.908,0 -43.47,-19.561 -43.47,-43.468 v -6.469 H 0 Z"
         style="fill:#5f4d3d;fill-opacity:1;fill-rule:evenodd;stroke:none"
         transform="matrix(1.3333333,0,0,-1.3333333,251.3496,557.89067)"
         clip-path="url(#clipPath9)" />
      <path
         id="path10"
         d="m 0,0 h 294.111 v -123.764 h -43.109 v 17.383 c 0,32.123 -26.283,58.404 -58.405,58.404 h -91.084 c -32.122,0 -58.405,-26.281 -58.405,-58.404 v -17.383 H 0 Z"
         style="fill:#897057;fill-opacity:1;fill-rule:evenodd;stroke:none"
         transform="matrix(1.3333333,0,0,-1.3333333,201.20893,522.18093)"
         clip-path="url(#clipPath11)" />
      <path
         id="path12"
         d="m 113.361,79.038 h 369.203 v 10.43 H 113.361 Z"
         style="fill:#a18567;fill-opacity:1;fill-rule:evenodd;stroke:none"
         transform="matrix(1.3333333,0,0,-1.3333333,0,800)"
         clip-path="url(#clipPath13)" />
      <path
         id="path14"
         d="M 114.288,198.514 H 481.637 V 446.321 H 114.288 Z"
         style="fill:#5f4d3d;fill-opacity:1;fill-rule:evenodd;stroke:none"
         transform="matrix(1.3333333,0,0,-1.3333333,0,800)"
         clip-path="url(#clipPath15)" />
      <path
         id="path16"
         d="m 150.906,186.601 h 294.111 v 11.913 H 150.906 Z"
         style="fill:#7e654e;fill-opacity:1;fill-rule:evenodd;stroke:none"
         transform="matrix(1.3333333,0,0,-1.3333333,0,800)"
         clip-path="url(#clipPath17)" />
      <path
         id="path18"
         d="m 103.279,442.555 h 389.367 v 11.009 H 103.279 Z"
         style="fill:#a18567;fill-opacity:1;fill-rule:evenodd;stroke:none"
         transform="matrix(1.3333333,0,0,-1.3333333,0,800)"
         clip-path="url(#clipPath19)" />
      <path
         id="path20"
         d="m 0,0 h 0.001 c 51.307,0 93.285,-41.978 93.285,-93.286 v -93.789 H -93.286 v 93.789 C -93.286,-41.978 -51.307,0 0,0"
         style="fill:#f68413;fill-opacity:1;fill-rule:evenodd;stroke:none"
         transform="matrix(1.3333333,0,0,-1.3333333,397.28253,254.06387)"
         clip-path="url(#clipPath21)" />
      <path
         id="path22"
         d="m 0,0 h 3.477 c 50.351,0 91.547,-41.196 91.547,-91.547 v -91.548 H -91.547 v 91.548 C -91.547,-41.196 -50.352,0 0,0"
         style="fill:#443529;fill-opacity:1;fill-rule:evenodd;stroke:none"
         transform="matrix(1.3333333,0,0,-1.3333333,394.9648,259.37107)"
         clip-path="url(#clipPath23)" />
      <path
         id="path24"
         d="m 114.288,428.938 h 367.349 v 13.616 H 114.288 Z"
         style="fill:#574637;fill-opacity:1;fill-rule:evenodd;stroke:none"
         transform="matrix(1.3333333,0,0,-1.3333333,0,800)"
         clip-path="url(#clipPath25)" />
      <path
         id="path26"
         d="M 0,0 C -13.501,9.06 -22.387,24.464 -22.387,41.944 -22.387,59.426 -13.501,74.83 0,83.89 13.501,74.83 22.387,59.426 22.387,41.944 22.387,24.464 13.501,9.06 0,0"
         style="fill:#f9de1c;fill-opacity:1;fill-rule:evenodd;stroke:none"
         transform="matrix(1.3333333,0,0,-1.3333333,356.724,464.54427)"
         clip-path="url(#clipPath27)" />
      <path
         id="path28"
         d="M 0,0 C -9.547,6.407 -15.831,17.299 -15.831,29.661 -15.831,42.022 -9.547,52.915 0,59.323 9.547,52.915 15.831,42.022 15.831,29.661 15.831,17.299 9.547,6.407 0,0"
         style="fill:#f68413;fill-opacity:1;fill-rule:evenodd;stroke:none"
         transform="matrix(1.3333333,0,0,-1.3333333,356.724,455.0156)"
         clip-path="url(#clipPath29)" />
      <path
         id="path30"
         d="m 0,0 c -4.969,3.335 -8.239,9.005 -8.239,15.438 0,6.434 3.27,12.104 8.239,15.439 C 4.969,27.542 8.239,21.872 8.239,15.438 8.239,9.005 4.969,3.335 0,0"
         style="fill:#f03a1f;fill-opacity:1;fill-rule:evenodd;stroke:none"
         transform="matrix(1.3333333,0,0,-1.3333333,356.724,449.63147)"
         clip-path="url(#clipPath31)" />
      <path
         id="path32"
         d="M 0,0 C -13.501,9.06 -22.388,24.464 -22.388,41.944 -22.388,59.426 -13.501,74.83 0,83.89 13.501,74.83 22.387,59.426 22.387,41.944 22.387,24.464 13.501,9.06 0,0"
         style="fill:#f9de1c;fill-opacity:1;fill-rule:evenodd;stroke:none"
         transform="matrix(1.3333333,0,0,-1.3333333,437.8424,464.54427)"
         clip-path="url(#clipPath33)" />
      <path
         id="path34"
         d="M 0,0 C -9.548,6.407 -15.831,17.299 -15.831,29.661 -15.831,42.022 -9.548,52.915 0,59.323 9.547,52.915 15.831,42.022 15.831,29.661 15.831,17.299 9.547,6.407 0,0"
         style="fill:#f68413;fill-opacity:1;fill-rule:evenodd;stroke:none"
         transform="matrix(1.3333333,0,0,-1.3333333,437.8424,455.0156)"
         clip-path="url(#clipPath35)" />
      <path
         id="path36"
         d="m 0,0 c -4.97,3.335 -8.24,9.005 -8.24,15.438 0,6.434 3.27,12.104 8.24,15.439 C 4.969,27.542 8.239,21.872 8.239,15.438 8.239,9.005 4.969,3.335 0,0"
         style="fill:#f03a1f;fill-opacity:1;fill-rule:evenodd;stroke:none"
         transform="matrix(1.3333333,0,0,-1.3333333,437.8424,449.63147)"
         clip-path="url(#clipPath37)" />
      <path
         id="path38"
         d="m 0,0 c -21.123,14.174 -35.025,38.274 -35.025,65.624 0,27.349 13.902,51.449 35.025,65.624 C 21.123,117.073 35.025,92.973 35.025,65.624 35.025,38.274 21.123,14.174 0,0"
         style="fill:#f9de1c;fill-opacity:1;fill-rule:evenodd;stroke:none"
         transform="matrix(1.3333333,0,0,-1.3333333,397.2832,448.1732)"
         clip-path="url(#clipPath39)" />
      <path
         id="path40"
         d="m 0,0 c -14.937,10.023 -24.768,27.066 -24.768,46.406 0,19.339 9.831,36.382 24.768,46.406 C 14.936,82.788 24.768,65.745 24.768,46.406 24.768,27.066 14.936,10.023 0,0"
         style="fill:#f68413;fill-opacity:1;fill-rule:evenodd;stroke:none"
         transform="matrix(1.3333333,0,0,-1.3333333,397.2832,433.2656)"
         clip-path="url(#clipPath41)" />
      <path
         id="path42"
         d="M 0,0 C -7.774,5.217 -12.892,14.087 -12.892,24.153 -12.892,34.22 -7.774,43.09 0,48.307 7.774,43.09 12.891,34.22 12.891,24.153 12.891,14.087 7.774,5.217 0,0"
         style="fill:#f03a1f;fill-opacity:1;fill-rule:evenodd;stroke:none"
         transform="matrix(1.3333333,0,0,-1.3333333,397.2832,424.8412)"
         clip-path="url(#clipPath43)" />
      <path
         id="path44"
         d="m 244.513,475 h 106.898 v 5.142 H 244.513 Z"
         style="fill:#6b5a47;fill-opacity:1;fill-rule:evenodd;stroke:none"
         transform="matrix(1.3333333,0,0,-1.3333333,0,800)"
         clip-path="url(#clipPath45)" />
      <path
         id="path46"
         d="m 0,0 c -8.603,0 -15.578,6.974 -15.578,15.578 0,8.603 6.975,15.577 15.578,15.577 H 89.831 V 0 Z"
         style="fill:#b38e47;fill-opacity:1;fill-rule:evenodd;stroke:none"
         transform="matrix(1.3333333,0,0,-1.3333333,362.83853,503.49733)"
         clip-path="url(#clipPath47)" />
      <path
         id="path48"
         d="m 0,0 c 8.581,0 15.579,6.997 15.579,15.578 0,8.58 -6.998,15.577 -15.579,15.577 -8.579,0 -15.577,-6.997 -15.577,-15.577 C -15.577,6.997 -8.579,0 0,0"
         style="fill:#dbbb7b;fill-opacity:1;fill-rule:evenodd;stroke:none"
         transform="matrix(1.3333333,0,0,-1.3333333,482.61333,503.49733)"
         clip-path="url(#clipPath49)" />
      <path
         id="path50"
         d="m 0,0 c -8.604,0 -15.578,6.975 -15.578,15.578 0,8.604 6.974,15.578 15.578,15.578 H 89.833 V 0 Z"
         style="fill:#c7a867;fill-opacity:1;fill-rule:evenodd;stroke:none"
         transform="matrix(1.3333333,0,0,-1.3333333,336.8756,467.49613)"
         clip-path="url(#clipPath51)" />
      <path
         id="path52"
         d="m 0,0 c 8.579,0 15.577,6.997 15.577,15.577 0,8.581 -6.998,15.578 -15.577,15.578 -8.581,0 -15.578,-6.997 -15.578,-15.578 C -15.578,6.997 -8.581,0 0,0"
         style="fill:#dbbb7b;fill-opacity:1;fill-rule:evenodd;stroke:none"
         transform="matrix(1.3333333,0,0,-1.3333333,456.6524,467.4948)"
         clip-path="url(#clipPath53)" />
      <path
         id="path54"
         d="m 0,0 c -8.604,0 -15.578,6.974 -15.578,15.578 0,8.603 6.974,15.577 15.578,15.577 H 89.831 V 0 Z"
         style="fill:#be9c58;fill-opacity:1;fill-rule:evenodd;stroke:none"
         transform="matrix(1.3333333,0,0,-1.3333333,311.9512,503.49733)"
         clip-path="url(#clipPath55)" />
      <path
         id="path56"
         d="m 0,0 c 8.579,0 15.577,6.997 15.577,15.578 0,8.58 -6.998,15.577 -15.577,15.577 -8.58,0 -15.577,-6.997 -15.577,-15.577 C -15.577,6.997 -8.58,0 0,0"
         style="fill:#dbbb7b;fill-opacity:1;fill-rule:evenodd;stroke:none"
         transform="matrix(1.3333333,0,0,-1.3333333,431.72787,503.49733)"
         clip-path="url(#clipPath57)" />
      <path
         id="path58"
         d="m 204.676,220.381 h 186.572 v 1.996 H 204.676 Z"
         style="fill:#f68413;fill-opacity:1;fill-rule:evenodd;stroke:none"
         transform="matrix(1.3333333,0,0,-1.3333333,0,800)"
         clip-path="url(#clipPath59)" />
    </g>
  </g>
</svg>
